<svg width="26" height="26" viewBox="0 0 26 26" fill="none" xmlns="http://www.w3.org/2000/svg">
<path d="M24.5654 0H1.43456C0.642274 0 0 0.642274 0 1.43456V24.5654C0 25.3577 0.642274 26 1.43456 26H24.5654C25.3577 26 26 25.3577 26 24.5654V1.43456C26 0.642274 25.3577 0 24.5654 0Z" fill="#3D5A98"/>
<path d="M17.815 25.8263V15.8275H21.1705L21.6723 11.931H17.815V9.4438C17.815 8.31585 18.1292 7.54571 19.7458 7.54571H21.8097V4.05497C20.8103 3.951 19.806 3.90147 18.8011 3.90661C15.8297 3.90661 13.7832 5.71743 13.7832 9.05764V11.931H10.4277V15.8275H13.7832V25.8263H17.815Z" fill="white"/>
</svg>
