<svg width="32" height="32" viewBox="0 0 32 32" fill="none" xmlns="http://www.w3.org/2000/svg">
<rect x="3" y="3" width="26" height="26" rx="2" fill="url(#paint0_linear_5308_234)"/>
<path d="M16.0006 9.5C14.2353 9.5 14.0137 9.50773 13.3204 9.53926C12.6284 9.57098 12.1561 9.6805 11.7428 9.84125C11.3153 10.0073 10.9526 10.2294 10.5914 10.5908C10.2298 10.9521 10.0077 11.3147 9.84112 11.7421C9.67992 12.1555 9.57026 12.628 9.53913 13.3197C9.50812 14.013 9.5 14.2347 9.5 16C9.5 17.7653 9.5078 17.9862 9.53926 18.6795C9.57111 19.3715 9.68064 19.8438 9.84125 20.2571C10.0074 20.6846 10.2295 21.0473 10.5909 21.4085C10.9521 21.7701 11.3147 21.9927 11.742 22.1588C12.1556 22.3195 12.628 22.429 13.3199 22.4607C14.0132 22.4923 14.2346 22.5 15.9998 22.5C17.7653 22.5 17.9861 22.4923 18.6794 22.4607C19.3714 22.429 19.8443 22.3195 20.2579 22.1588C20.6853 21.9927 21.0474 21.7701 21.4085 21.4085C21.7701 21.0473 21.9922 20.6846 22.1587 20.2573C22.3185 19.8438 22.4282 19.3713 22.4607 18.6796C22.4919 17.9863 22.5 17.7653 22.5 16C22.5 14.2347 22.4919 14.0132 22.4607 13.3198C22.4282 12.6278 22.3185 12.1555 22.1587 11.7423C21.9922 11.3147 21.7701 10.9521 21.4085 10.5908C21.047 10.2292 20.6854 10.0071 20.2575 9.84131C19.8431 9.6805 19.3705 9.57091 18.6785 9.53926C17.9852 9.50773 17.7644 9.5 15.9986 9.5H16.0006ZM15.4175 10.6714C15.5906 10.6711 15.7837 10.6714 16.0006 10.6714C17.7361 10.6714 17.9418 10.6776 18.6272 10.7087C19.2609 10.7377 19.6049 10.8436 19.834 10.9326C20.1374 11.0504 20.3536 11.1912 20.581 11.4188C20.8085 11.6463 20.9493 11.8629 21.0674 12.1663C21.1564 12.3951 21.2624 12.739 21.2913 13.3728C21.3224 14.058 21.3292 14.2638 21.3292 15.9985C21.3292 17.7332 21.3224 17.9391 21.2913 18.6242C21.2623 19.258 21.1564 19.6019 21.0674 19.8308C20.9496 20.1342 20.8085 20.3501 20.581 20.5775C20.3535 20.805 20.1375 20.9458 19.834 21.0636C19.6052 21.153 19.2609 21.2586 18.6272 21.2876C17.9419 21.3188 17.7361 21.3255 16.0006 21.3255C14.265 21.3255 14.0592 21.3188 13.3741 21.2876C12.7403 21.2584 12.3963 21.1525 12.167 21.0635C11.8637 20.9457 11.647 20.8049 11.4195 20.5774C11.192 20.3499 11.0512 20.1338 10.9331 19.8303C10.8441 19.6014 10.7381 19.2574 10.7093 18.6237C10.6781 17.9385 10.6719 17.7327 10.6719 15.9969C10.6719 14.2611 10.6781 14.0564 10.7093 13.3712C10.7383 12.7374 10.8441 12.3934 10.9331 12.1643C11.051 11.861 11.192 11.6443 11.4196 11.4168C11.6471 11.1893 11.8637 11.0485 12.1671 10.9304C12.3962 10.8411 12.7403 10.7354 13.3741 10.7063C13.9737 10.6792 14.2061 10.6711 15.4175 10.6697V10.6714ZM19.4703 11.7506C19.0397 11.7506 18.6903 12.0996 18.6903 12.5303C18.6903 12.961 19.0397 13.3103 19.4703 13.3103C19.9009 13.3103 20.2503 12.961 20.2503 12.5303C20.2503 12.0997 19.9009 11.7506 19.4703 11.7506ZM16.0006 12.662C14.1572 12.662 12.6626 14.1566 12.6626 16C12.6626 17.8434 14.1572 19.3373 16.0006 19.3373C17.8441 19.3373 19.3381 17.8434 19.3381 16C19.3381 14.1566 17.8441 12.662 16.0006 12.662ZM16.0006 13.8333C17.1972 13.8333 18.1673 14.8033 18.1673 16C18.1673 17.1966 17.1972 18.1667 16.0006 18.1667C14.804 18.1667 13.8339 17.1966 13.8339 16C13.8339 14.8033 14.8039 13.8333 16.0006 13.8333Z" fill="white"/>
<defs>
<linearGradient id="paint0_linear_5308_234" x1="3" y1="3" x2="29" y2="29" gradientUnits="userSpaceOnUse">
<stop stop-color="#FBD425"/>
<stop offset="0.278054" stop-color="#FF8B5D"/>
<stop offset="0.494458" stop-color="#F31C7B"/>
<stop offset="0.692044" stop-color="#B71CA2"/>
<stop offset="1" stop-color="#751CCB"/>
</linearGradient>
</defs>
</svg>
