<svg width="20" height="20" viewBox="0 0 20 20" fill="none" xmlns="http://www.w3.org/2000/svg">
<path d="M5.39091 15.7613L14.3705 6.78161V12.8807C14.3686 12.9888 14.3883 13.0963 14.4284 13.1968C14.4685 13.2973 14.5282 13.3888 14.6041 13.4659C14.6799 13.5431 14.7703 13.6044 14.8701 13.6462C14.9699 13.6881 15.077 13.7096 15.1852 13.7096C15.2934 13.7096 15.4005 13.6881 15.5002 13.6462C15.6 13.6044 15.6905 13.5431 15.7663 13.4659C15.8421 13.3888 15.9019 13.2973 15.9419 13.1968C15.982 13.0963 16.0017 12.9888 15.9999 12.8807V4.81467C15.9998 4.59861 15.9139 4.39142 15.7612 4.23865C15.6084 4.08587 15.4012 4.00003 15.1852 4L7.11931 4C6.9057 4.00371 6.70209 4.09118 6.55235 4.24355C6.40261 4.39593 6.31869 4.60102 6.31869 4.81467C6.31869 5.02831 6.40261 5.2334 6.55235 5.38578C6.7021 5.53816 6.9057 5.62562 7.11931 5.62933H13.2183L4.23864 14.6091C4.08584 14.7619 4 14.9691 4 15.1852C4 15.4013 4.08584 15.6086 4.23864 15.7613C4.39144 15.9142 4.59868 16 4.81478 16C5.03087 16 5.23811 15.9142 5.39091 15.7613Z" fill="#F3F3F3"/>
</svg>
