<svg width="16" height="16" viewBox="0 0 16 16" fill="none" xmlns="http://www.w3.org/2000/svg">
<path opacity="0.8" d="M1.85455 15.6818L13.8274 3.70882V11.8409C13.8249 11.9851 13.8511 12.1284 13.9046 12.2624C13.958 12.3964 14.0376 12.5184 14.1387 12.6213C14.2399 12.7241 14.3604 12.8059 14.4935 12.8616C14.6265 12.9174 14.7693 12.9461 14.9136 12.9461C15.0578 12.9461 15.2006 12.9174 15.3337 12.8616C15.4667 12.8059 15.5873 12.7241 15.6884 12.6213C15.7894 12.5184 15.8692 12.3964 15.9225 12.2624C15.976 12.1284 16.0023 11.9851 15.9998 11.8409V1.08622C15.9997 0.798151 15.8852 0.521894 15.6816 0.318196C15.4779 0.1145 15.2016 4.54117e-05 14.9136 1.6426e-06L4.15908 0C3.87426 0.00495077 3.60279 0.121568 3.40314 0.324734C3.20347 0.527902 3.09159 0.801364 3.09159 1.08622C3.09159 1.37108 3.20347 1.64454 3.40314 1.84771C3.6028 2.05088 3.87426 2.1675 4.15908 2.17244H12.291L0.318189 14.1455C0.114456 14.3492 0 14.6255 0 14.9137C0 15.2018 0.114456 15.4781 0.318189 15.6818C0.521923 15.8856 0.798244 16 1.08637 16C1.37449 16 1.65082 15.8856 1.85455 15.6818Z" fill="#EC1B28"/>
</svg>
