<svg width="171" height="44" viewBox="0 0 171 44" fill="none" xmlns="http://www.w3.org/2000/svg">
<path d="M2.75 40.5V33.504H0.044V32.8H6.27V33.504H3.564V40.5H2.75ZM7.57041 40.5V32.8H10.4524C11.1051 32.8 11.6661 32.9063 12.1354 33.119C12.6047 33.3243 12.9641 33.625 13.2134 34.021C13.4701 34.4097 13.5984 34.8827 13.5984 35.44C13.5984 35.9827 13.4701 36.452 13.2134 36.848C12.9641 37.2367 12.6047 37.5373 12.1354 37.75C11.6661 37.9553 11.1051 38.058 10.4524 38.058H8.02141L8.38441 37.684V40.5H7.57041ZM12.8284 40.5L10.8484 37.706H11.7284L13.7194 40.5H12.8284ZM8.38441 37.75L8.02141 37.365H10.4304C11.2004 37.365 11.7834 37.1963 12.1794 36.859C12.5827 36.5217 12.7844 36.0487 12.7844 35.44C12.7844 34.824 12.5827 34.3473 12.1794 34.01C11.7834 33.6727 11.2004 33.504 10.4304 33.504H8.02141L8.38441 33.119V37.75ZM14.2876 40.5L17.8076 32.8H18.6106L22.1306 40.5H21.2726L18.0386 33.273H18.3686L15.1346 40.5H14.2876ZM15.6736 38.443L15.9156 37.783H20.3926L20.6346 38.443H15.6736ZM23.4044 40.5V32.8H24.0754L29.3884 39.488H29.0364V32.8H29.8394V40.5H29.1684L23.8664 33.812H24.2184V40.5H23.4044ZM34.4756 40.566C33.9036 40.566 33.3536 40.4743 32.8256 40.291C32.305 40.1003 31.9016 39.8583 31.6156 39.565L31.9346 38.938C32.206 39.202 32.569 39.4257 33.0236 39.609C33.4856 39.785 33.9696 39.873 34.4756 39.873C34.9596 39.873 35.352 39.8143 35.6526 39.697C35.9606 39.5723 36.1843 39.4073 36.3236 39.202C36.4703 38.9967 36.5436 38.7693 36.5436 38.52C36.5436 38.2193 36.4556 37.9773 36.2796 37.794C36.111 37.6107 35.8873 37.4677 35.6086 37.365C35.33 37.255 35.022 37.1597 34.6846 37.079C34.3473 36.9983 34.01 36.914 33.6726 36.826C33.3353 36.7307 33.0236 36.606 32.7376 36.452C32.459 36.298 32.2316 36.0963 32.0556 35.847C31.887 35.5903 31.8026 35.2567 31.8026 34.846C31.8026 34.4647 31.9016 34.1163 32.0996 33.801C32.305 33.4783 32.6166 33.2217 33.0346 33.031C33.4526 32.833 33.988 32.734 34.6406 32.734C35.0733 32.734 35.5023 32.7963 35.9276 32.921C36.353 33.0383 36.7196 33.2033 37.0276 33.416L36.7526 34.065C36.4226 33.845 36.0706 33.6837 35.6966 33.581C35.33 33.4783 34.9743 33.427 34.6296 33.427C34.1676 33.427 33.7863 33.4893 33.4856 33.614C33.185 33.7387 32.9613 33.9073 32.8146 34.12C32.6753 34.3253 32.6056 34.56 32.6056 34.824C32.6056 35.1247 32.69 35.3667 32.8586 35.55C33.0346 35.7333 33.262 35.8763 33.5406 35.979C33.8266 36.0817 34.1383 36.1733 34.4756 36.254C34.813 36.3347 35.1466 36.4227 35.4766 36.518C35.814 36.6133 36.122 36.738 36.4006 36.892C36.6866 37.0387 36.914 37.2367 37.0826 37.486C37.2586 37.7353 37.3466 38.0617 37.3466 38.465C37.3466 38.839 37.244 39.1873 37.0386 39.51C36.8333 39.8253 36.518 40.082 36.0926 40.28C35.6746 40.4707 35.1356 40.566 34.4756 40.566ZM39.1202 40.5V32.8H42.0022C42.6549 32.8 43.2159 32.9063 43.6852 33.119C44.1545 33.3243 44.5139 33.625 44.7632 34.021C45.0199 34.4097 45.1482 34.8827 45.1482 35.44C45.1482 35.9827 45.0199 36.452 44.7632 36.848C44.5139 37.2367 44.1545 37.5373 43.6852 37.75C43.2159 37.9627 42.6549 38.069 42.0022 38.069H39.5712L39.9342 37.684V40.5H39.1202ZM39.9342 37.75L39.5712 37.354H41.9802C42.7502 37.354 43.3332 37.189 43.7292 36.859C44.1325 36.5217 44.3342 36.0487 44.3342 35.44C44.3342 34.824 44.1325 34.3473 43.7292 34.01C43.3332 33.6727 42.7502 33.504 41.9802 33.504H39.5712L39.9342 33.119V37.75ZM50.3817 40.566C49.8024 40.566 49.2634 40.4707 48.7647 40.28C48.2734 40.082 47.8444 39.807 47.4777 39.455C47.1184 39.0957 46.8361 38.6813 46.6307 38.212C46.4327 37.7353 46.3337 37.2147 46.3337 36.65C46.3337 36.0853 46.4327 35.5683 46.6307 35.099C46.8361 34.6223 47.1184 34.208 47.4777 33.856C47.8444 33.4967 48.2734 33.2217 48.7647 33.031C49.2561 32.833 49.7951 32.734 50.3817 32.734C50.9611 32.734 51.4964 32.833 51.9877 33.031C52.4791 33.2217 52.9044 33.493 53.2637 33.845C53.6304 34.197 53.9127 34.6113 54.1107 35.088C54.3161 35.5647 54.4187 36.0853 54.4187 36.65C54.4187 37.2147 54.3161 37.7353 54.1107 38.212C53.9127 38.6887 53.6304 39.103 53.2637 39.455C52.9044 39.807 52.4791 40.082 51.9877 40.28C51.4964 40.4707 50.9611 40.566 50.3817 40.566ZM50.3817 39.84C50.8437 39.84 51.2691 39.763 51.6577 39.609C52.0537 39.4477 52.3947 39.224 52.6807 38.938C52.9741 38.6447 53.2014 38.3073 53.3627 37.926C53.5241 37.5373 53.6047 37.112 53.6047 36.65C53.6047 36.188 53.5241 35.7663 53.3627 35.385C53.2014 34.9963 52.9741 34.659 52.6807 34.373C52.3947 34.0797 52.0537 33.856 51.6577 33.702C51.2691 33.5407 50.8437 33.46 50.3817 33.46C49.9197 33.46 49.4907 33.5407 49.0947 33.702C48.6987 33.856 48.3541 34.0797 48.0607 34.373C47.7747 34.659 47.5474 34.9963 47.3787 35.385C47.2174 35.7663 47.1367 36.188 47.1367 36.65C47.1367 37.1047 47.2174 37.5263 47.3787 37.915C47.5474 38.3037 47.7747 38.6447 48.0607 38.938C48.3541 39.224 48.6987 39.4477 49.0947 39.609C49.4907 39.763 49.9197 39.84 50.3817 39.84ZM56.2433 40.5V32.8H59.1253C59.7779 32.8 60.3389 32.9063 60.8083 33.119C61.2776 33.3243 61.6369 33.625 61.8863 34.021C62.1429 34.4097 62.2713 34.8827 62.2713 35.44C62.2713 35.9827 62.1429 36.452 61.8863 36.848C61.6369 37.2367 61.2776 37.5373 60.8083 37.75C60.3389 37.9553 59.7779 38.058 59.1253 38.058H56.6943L57.0573 37.684V40.5H56.2433ZM61.5013 40.5L59.5213 37.706H60.4013L62.3923 40.5H61.5013ZM57.0573 37.75L56.6943 37.365H59.1033C59.8733 37.365 60.4563 37.1963 60.8523 36.859C61.2556 36.5217 61.4573 36.0487 61.4573 35.44C61.4573 34.824 61.2556 34.3473 60.8523 34.01C60.4563 33.6727 59.8733 33.504 59.1033 33.504H56.6943L57.0573 33.119V37.75ZM65.5811 40.5V33.504H62.8751V32.8H69.1011V33.504H66.3951V40.5H65.5811ZM72.0484 40.5L75.5684 32.8H76.3714L79.8914 40.5H79.0334L75.7994 33.273H76.1294L72.8954 40.5H72.0484ZM73.4344 38.443L73.6764 37.783H78.1534L78.3954 38.443H73.4344ZM81.1651 40.5V32.8H81.8361L87.1491 39.488H86.7971V32.8H87.6001V40.5H86.9291L81.6271 33.812H81.9791V40.5H81.1651ZM90.1134 40.5V32.8H93.2484C94.0697 32.8 94.7884 32.965 95.4044 33.295C96.0277 33.6177 96.5117 34.0687 96.8564 34.648C97.201 35.2273 97.3734 35.8947 97.3734 36.65C97.3734 37.4053 97.201 38.0727 96.8564 38.652C96.5117 39.2313 96.0277 39.686 95.4044 40.016C94.7884 40.3387 94.0697 40.5 93.2484 40.5H90.1134ZM90.9274 39.796H93.2044C93.8864 39.796 94.4767 39.664 94.9754 39.4C95.4814 39.1287 95.8737 38.7583 96.1524 38.289C96.431 37.8123 96.5704 37.266 96.5704 36.65C96.5704 36.0267 96.431 35.4803 96.1524 35.011C95.8737 34.5417 95.4814 34.175 94.9754 33.911C94.4767 33.6397 93.8864 33.504 93.2044 33.504H90.9274V39.796ZM102.08 40.5V32.8H102.894V39.796H107.206V40.5H102.08ZM111.773 40.566C111.194 40.566 110.655 40.4707 110.156 40.28C109.665 40.082 109.236 39.807 108.869 39.455C108.51 39.0957 108.228 38.6813 108.022 38.212C107.824 37.7353 107.725 37.2147 107.725 36.65C107.725 36.0853 107.824 35.5683 108.022 35.099C108.228 34.6223 108.51 34.208 108.869 33.856C109.236 33.4967 109.665 33.2217 110.156 33.031C110.648 32.833 111.187 32.734 111.773 32.734C112.353 32.734 112.888 32.833 113.379 33.031C113.871 33.2217 114.296 33.493 114.655 33.845C115.022 34.197 115.304 34.6113 115.502 35.088C115.708 35.5647 115.81 36.0853 115.81 36.65C115.81 37.2147 115.708 37.7353 115.502 38.212C115.304 38.6887 115.022 39.103 114.655 39.455C114.296 39.807 113.871 40.082 113.379 40.28C112.888 40.4707 112.353 40.566 111.773 40.566ZM111.773 39.84C112.235 39.84 112.661 39.763 113.049 39.609C113.445 39.4477 113.786 39.224 114.072 38.938C114.366 38.6447 114.593 38.3073 114.754 37.926C114.916 37.5373 114.996 37.112 114.996 36.65C114.996 36.188 114.916 35.7663 114.754 35.385C114.593 34.9963 114.366 34.659 114.072 34.373C113.786 34.0797 113.445 33.856 113.049 33.702C112.661 33.5407 112.235 33.46 111.773 33.46C111.311 33.46 110.882 33.5407 110.486 33.702C110.09 33.856 109.746 34.0797 109.452 34.373C109.166 34.659 108.939 34.9963 108.77 35.385C108.609 35.7663 108.528 36.188 108.528 36.65C108.528 37.1047 108.609 37.5263 108.77 37.915C108.939 38.3037 109.166 38.6447 109.452 38.938C109.746 39.224 110.09 39.4477 110.486 39.609C110.882 39.763 111.311 39.84 111.773 39.84ZM121.012 40.566C120.425 40.566 119.883 40.4707 119.384 40.28C118.893 40.082 118.464 39.807 118.097 39.455C117.738 39.103 117.455 38.6887 117.25 38.212C117.052 37.7353 116.953 37.2147 116.953 36.65C116.953 36.0853 117.052 35.5647 117.25 35.088C117.455 34.6113 117.741 34.197 118.108 33.845C118.475 33.493 118.904 33.2217 119.395 33.031C119.894 32.833 120.436 32.734 121.023 32.734C121.61 32.734 122.145 32.8257 122.629 33.009C123.12 33.1923 123.538 33.471 123.883 33.845L123.377 34.362C123.054 34.0393 122.699 33.8083 122.31 33.669C121.921 33.5297 121.503 33.46 121.056 33.46C120.579 33.46 120.139 33.5407 119.736 33.702C119.34 33.856 118.992 34.0797 118.691 34.373C118.398 34.659 118.167 34.9963 117.998 35.385C117.837 35.7663 117.756 36.188 117.756 36.65C117.756 37.1047 117.837 37.5263 117.998 37.915C118.167 38.3037 118.398 38.6447 118.691 38.938C118.992 39.224 119.34 39.4477 119.736 39.609C120.139 39.763 120.576 39.84 121.045 39.84C121.485 39.84 121.899 39.774 122.288 39.642C122.684 39.51 123.047 39.2863 123.377 38.971L123.839 39.587C123.472 39.9097 123.043 40.1553 122.552 40.324C122.061 40.4853 121.547 40.566 121.012 40.566ZM123.058 39.488V36.65H123.839V39.587L123.058 39.488ZM126.143 40.5V32.8H126.957V40.5H126.143ZM131.585 40.566C131.013 40.566 130.463 40.4743 129.935 40.291C129.414 40.1003 129.011 39.8583 128.725 39.565L129.044 38.938C129.315 39.202 129.678 39.4257 130.133 39.609C130.595 39.785 131.079 39.873 131.585 39.873C132.069 39.873 132.461 39.8143 132.762 39.697C133.07 39.5723 133.294 39.4073 133.433 39.202C133.58 38.9967 133.653 38.7693 133.653 38.52C133.653 38.2193 133.565 37.9773 133.389 37.794C133.22 37.6107 132.997 37.4677 132.718 37.365C132.439 37.255 132.131 37.1597 131.794 37.079C131.457 36.9983 131.119 36.914 130.782 36.826C130.445 36.7307 130.133 36.606 129.847 36.452C129.568 36.298 129.341 36.0963 129.165 35.847C128.996 35.5903 128.912 35.2567 128.912 34.846C128.912 34.4647 129.011 34.1163 129.209 33.801C129.414 33.4783 129.726 33.2217 130.144 33.031C130.562 32.833 131.097 32.734 131.75 32.734C132.183 32.734 132.612 32.7963 133.037 32.921C133.462 33.0383 133.829 33.2033 134.137 33.416L133.862 34.065C133.532 33.845 133.18 33.6837 132.806 33.581C132.439 33.4783 132.084 33.427 131.739 33.427C131.277 33.427 130.896 33.4893 130.595 33.614C130.294 33.7387 130.071 33.9073 129.924 34.12C129.785 34.3253 129.715 34.56 129.715 34.824C129.715 35.1247 129.799 35.3667 129.968 35.55C130.144 35.7333 130.371 35.8763 130.65 35.979C130.936 36.0817 131.248 36.1733 131.585 36.254C131.922 36.3347 132.256 36.4227 132.586 36.518C132.923 36.6133 133.231 36.738 133.51 36.892C133.796 37.0387 134.023 37.2367 134.192 37.486C134.368 37.7353 134.456 38.0617 134.456 38.465C134.456 38.839 134.353 39.1873 134.148 39.51C133.943 39.8253 133.627 40.082 133.202 40.28C132.784 40.4707 132.245 40.566 131.585 40.566ZM137.618 40.5V33.504H134.912V32.8H141.138V33.504H138.432V40.5H137.618ZM142.439 40.5V32.8H143.253V40.5H142.439ZM149.102 40.566C148.523 40.566 147.987 40.4707 147.496 40.28C147.005 40.082 146.579 39.807 146.22 39.455C145.861 39.103 145.578 38.6887 145.373 38.212C145.175 37.7353 145.076 37.2147 145.076 36.65C145.076 36.0853 145.175 35.5647 145.373 35.088C145.578 34.6113 145.861 34.197 146.22 33.845C146.587 33.493 147.016 33.2217 147.507 33.031C147.998 32.833 148.534 32.734 149.113 32.734C149.67 32.734 150.195 32.8293 150.686 33.02C151.177 33.2033 151.592 33.482 151.929 33.856L151.412 34.373C151.097 34.0503 150.748 33.8193 150.367 33.68C149.986 33.5333 149.575 33.46 149.135 33.46C148.673 33.46 148.244 33.5407 147.848 33.702C147.452 33.856 147.107 34.0797 146.814 34.373C146.521 34.659 146.29 34.9963 146.121 35.385C145.96 35.7663 145.879 36.188 145.879 36.65C145.879 37.112 145.96 37.5373 146.121 37.926C146.29 38.3073 146.521 38.6447 146.814 38.938C147.107 39.224 147.452 39.4477 147.848 39.609C148.244 39.763 148.673 39.84 149.135 39.84C149.575 39.84 149.986 39.7667 150.367 39.62C150.748 39.4733 151.097 39.2387 151.412 38.916L151.929 39.433C151.592 39.807 151.177 40.0893 150.686 40.28C150.195 40.4707 149.667 40.566 149.102 40.566ZM155.766 40.566C155.194 40.566 154.644 40.4743 154.116 40.291C153.595 40.1003 153.192 39.8583 152.906 39.565L153.225 38.938C153.496 39.202 153.859 39.4257 154.314 39.609C154.776 39.785 155.26 39.873 155.766 39.873C156.25 39.873 156.642 39.8143 156.943 39.697C157.251 39.5723 157.474 39.4073 157.614 39.202C157.76 38.9967 157.834 38.7693 157.834 38.52C157.834 38.2193 157.746 37.9773 157.57 37.794C157.401 37.6107 157.177 37.4677 156.899 37.365C156.62 37.255 156.312 37.1597 155.975 37.079C155.637 36.9983 155.3 36.914 154.963 36.826C154.625 36.7307 154.314 36.606 154.028 36.452C153.749 36.298 153.522 36.0963 153.346 35.847C153.177 35.5903 153.093 35.2567 153.093 34.846C153.093 34.4647 153.192 34.1163 153.39 33.801C153.595 33.4783 153.907 33.2217 154.325 33.031C154.743 32.833 155.278 32.734 155.931 32.734C156.363 32.734 156.792 32.7963 157.218 32.921C157.643 33.0383 158.01 33.2033 158.318 33.416L158.043 34.065C157.713 33.845 157.361 33.6837 156.987 33.581C156.62 33.4783 156.264 33.427 155.92 33.427C155.458 33.427 155.076 33.4893 154.776 33.614C154.475 33.7387 154.251 33.9073 154.105 34.12C153.965 34.3253 153.896 34.56 153.896 34.824C153.896 35.1247 153.98 35.3667 154.149 35.55C154.325 35.7333 154.552 35.8763 154.831 35.979C155.117 36.0817 155.428 36.1733 155.766 36.254C156.103 36.3347 156.437 36.4227 156.767 36.518C157.104 36.6133 157.412 36.738 157.691 36.892C157.977 37.0387 158.204 37.2367 158.373 37.486C158.549 37.7353 158.637 38.0617 158.637 38.465C158.637 38.839 158.534 39.1873 158.329 39.51C158.123 39.8253 157.808 40.082 157.383 40.28C156.965 40.4707 156.426 40.566 155.766 40.566Z" fill="#F3F3F3"/>
<path fill-rule="evenodd" clip-rule="evenodd" d="M49.5748 1.50635C47.9793 2.10819 46.5354 3.00934 46.366 3.50926C46.1566 4.12916 46.3936 4.29172 47.1119 4.02144C47.691 3.80276 48.2984 3.8363 48.4619 4.09562C48.6247 4.35558 47.8795 9.1645 46.8053 14.7836C45.7311 20.4021 44.9681 25.113 45.11 25.2523C45.2518 25.3916 46.3023 25.1859 47.4442 24.795C49.2163 24.1879 49.5203 23.768 49.5203 21.927C49.5203 18.6475 50.45 18.754 52.6877 22.2902C53.8046 24.0557 55.041 25.5 55.4349 25.5C56.7619 25.5 59.863 23.6216 60.2747 22.5682C60.8886 20.9968 60.7921 20.8814 59.4519 21.5864C58.1171 22.2882 57.6161 21.8883 54.8131 17.8857C53.3719 15.8286 53.3607 15.7106 54.4999 14.4746C55.2754 13.6328 56.3384 13.2581 57.6043 13.38C59.84 13.5967 61.5018 11.8557 60.2412 10.6172C59.0731 9.46961 56.8407 10.5404 53.7113 13.7489C50.3837 17.1613 50.3424 17.0207 52.1467 8.40591C54.0482 -0.674601 54.2097 -0.241766 49.5748 1.50635ZM80.761 5.50314C80.2798 7.09966 80.0197 8.54911 80.1832 8.72457C80.3474 8.89938 81.2712 8.11499 82.2364 6.98162C84.0204 4.88582 87.1504 3.61698 87.8378 4.70971C88.2876 5.42509 85.8904 20.0247 84.9803 22.1134C84.631 22.9146 83.7709 23.5648 83.0591 23.5648C82.3507 23.5648 81.5883 23.8551 81.3651 24.2099C81.1058 24.6227 83.2055 24.8549 87.197 24.8549C90.6474 24.8549 93.6158 24.5666 93.8404 24.2099C94.0636 23.8551 93.6743 23.5648 92.9743 23.5648C90.4859 23.5648 90.3013 22.3218 91.5856 14.2114C92.26 9.95405 92.8214 6.10821 92.8338 5.6644C92.8476 5.15739 93.8299 4.85808 95.4819 4.85808C97.9625 4.85808 98.1083 4.9658 98.1083 6.79326C98.1083 9.44897 99.8049 9.32254 100.265 6.63199C100.461 5.47927 100.799 4.10013 101.014 3.56796C101.351 2.7339 100.042 2.60037 91.5206 2.60037H81.6363L80.761 5.50314ZM4.21533 3.42476C4.21533 3.77567 4.80627 4.21431 5.52852 4.40009C7.14834 4.81615 7.14834 5.32381 5.52852 14.534C4.81086 18.614 4.2219 22.1837 4.21993 22.4669C4.2173 22.7501 3.26721 23.3739 2.10767 23.8525L0 24.7233L4.48651 25.1955C9.86926 25.7619 16.0563 25.2136 18.5127 23.9531C24.3005 20.9826 26.9394 13.4374 24.185 7.73505C22.3767 3.99112 20.5816 3.30219 11.9303 3.02998C7.11682 2.87839 4.21533 3.02675 4.21533 3.42476ZM17.4378 6.03983C19.2021 7.58862 19.5658 8.42526 19.8291 11.5396C20.4877 19.3397 14.7655 26.4618 10.1463 23.5919C9.30394 23.0681 9.32954 22.0005 10.3519 15.0545C10.9947 10.6881 11.6815 6.46299 11.8784 5.6644C12.3834 3.61827 14.8705 3.78663 17.4378 6.03983ZM33.2473 11.3009C28.5264 13.4058 26.3334 20.2028 29.2138 23.8003C30.8573 25.8528 32.9774 25.9677 36.9032 24.2176C41.8027 22.0328 43.9649 14.823 40.6858 11.6022C38.7522 9.70183 36.9938 9.63023 33.2473 11.3009ZM65.1144 11.4506C62.8209 12.7562 61.5701 14.9017 63.534 14.1611C64.2556 13.8889 64.2333 14.7688 63.4073 19.0242C62.2989 24.7395 62.6857 25.9586 65.3948 25.2833C66.2339 25.0736 67.8806 24.037 69.054 22.9797L71.1879 21.0575V22.9765C71.1879 25.5135 72.5976 25.9457 75.3737 24.2595C78.0112 22.6585 79.176 20.6588 77.0933 21.3084C75.4833 21.8103 75.4453 21.0497 76.7709 14.901C77.3015 12.442 77.6192 10.3159 77.4774 10.1766C77.3356 10.0373 76.3369 10.3714 75.2588 10.9197C73.7151 11.7035 73.1301 12.6046 72.5077 15.1526C71.6488 18.6695 69.6738 21.6296 68.1853 21.6296C67.0008 21.6296 67.0107 20.782 68.2542 15.5132C69.1919 11.5409 69.1288 9.99727 68.0303 10.0334C67.7808 10.0418 66.469 10.6791 65.1144 11.4506ZM100.718 11.4699C98.3788 13.0271 97.2553 14.8152 99.038 14.1431C100.349 13.649 100.354 14.4475 99.0813 20.3937C98.5337 22.9533 98.1903 25.1504 98.3184 25.2768C98.4471 25.4026 99.4287 25.2052 100.501 24.8382C102.209 24.2531 102.548 23.7029 103.248 20.3737C103.687 18.2856 104.597 15.9092 105.27 15.0926C106.329 13.8083 106.639 13.727 107.574 14.4895C108.503 15.2468 108.787 15.1984 109.598 14.1457C110.874 12.4898 110.822 10.7126 109.481 10.2076C108.713 9.91793 107.718 10.543 106.198 12.2705L104.018 14.7488V12.384C104.018 9.62185 103.649 9.51928 100.718 11.4699ZM118.213 10.6856C112.914 12.244 108.719 20.813 111.454 24.4879C112.543 25.9503 114.444 25.4503 117.359 22.9359L119.451 21.131L119.45 23.1378C119.447 25.7071 120.795 26.0031 123.698 24.0712C126.318 22.327 127.046 20.9246 125.066 21.4329C123.441 21.8509 123.419 21.4961 124.704 15.5351C125.468 11.997 125.499 10.9468 124.857 10.5462C123.822 9.90051 120.656 9.96696 118.213 10.6856ZM130.944 11.4551C128.587 13.0239 127.451 14.8178 129.241 14.1431C130.553 13.649 130.558 14.4475 129.285 20.3937C128.737 22.9533 128.394 25.1504 128.522 25.2768C128.65 25.4026 129.69 25.1859 130.832 24.795C132.451 24.2402 132.911 23.7074 132.922 22.3727C132.951 18.952 137.295 12.1782 138.623 13.4832C138.873 13.7289 138.723 15.9576 138.29 18.4366C137.316 24.0196 137.302 25.5 138.225 25.5C139.707 25.5 143.483 23.352 144.149 22.1296C144.759 21.0097 144.672 20.9143 143.401 21.311C142.021 21.7412 141.984 21.6464 142.504 18.9533C142.802 17.4097 143.054 14.8462 143.065 13.2574C143.091 9.52896 142.015 9.29351 137.775 12.0976L134.549 14.2302V12.3472C134.549 9.88697 133.639 9.66184 130.944 11.4551ZM151.547 10.6507C149.801 11.3442 147.353 14.3559 147.353 15.8118C147.353 16.4188 148.7 18.1205 150.348 19.5932C151.994 21.0659 153.159 22.5618 152.935 22.9178C152.193 24.0983 149.938 23.588 148.321 21.8735L146.725 20.1815L146.015 22.0154C145.426 23.539 145.5 23.9886 146.455 24.6743C149.67 26.9843 156.545 23.4842 156.545 19.5377C156.545 18.8959 155.225 17.4632 153.59 16.3318C151.946 15.1932 150.636 13.7683 150.636 13.1194C150.636 11.7093 151.901 11.6164 153.629 12.9007C155.341 14.1727 155.714 14.1244 156.59 12.5169C157.173 11.4467 157.142 11.0229 156.449 10.5914C155.345 9.90438 153.368 9.92825 151.547 10.6507ZM37.022 12.5562C38.7942 15.8093 36.9925 23.5648 34.4646 23.5648C32.0234 23.5648 31.7253 16.3769 34.024 12.9304C35.3215 10.9849 36.112 10.8862 37.022 12.5562ZM121.089 13.1477C121.089 16.4492 118.012 21.6296 116.05 21.6296C114.86 21.6296 114.909 17.0633 116.131 14.1908C116.922 12.3311 117.421 11.9537 119.086 11.9537C120.597 11.9537 121.089 12.2466 121.089 13.1477Z" fill="#EC1B28"/>
</svg>
